<svg xmlns="http://www.w3.org/2000/svg" xmlns:xlink="http://www.w3.org/1999/xlink" width="720" zoomAndPan="magnify" viewBox="0 0 540 112.499997" height="150" preserveAspectRatio="xMidYMid meet" version="1.0"><defs><clipPath id="39e03c6464"><path d="M 1.195312 0 L 538.804688 0 L 538.804688 108 L 1.195312 108 Z M 1.195312 0 " clip-rule="nonzero"/></clipPath><clipPath id="35b94edef1"><path d="M 1.195312 0 L 538.804688 0 L 538.804688 109.015625 L 1.195312 109.015625 Z M 1.195312 0 " clip-rule="nonzero"/></clipPath></defs><g clip-path="url(#39e03c6464)"><path fill="#835e89" d="M 1.453125 -14.234375 L 546.382812 -14.234375 L 551.871094 107.527344 C 551.871094 107.527344 388.394531 32.378906 275.433594 63.457031 C 162.472656 94.53125 6.941406 107.527344 6.941406 107.527344 Z M 1.453125 -14.234375 " fill-opacity="1" fill-rule="nonzero"/></g><g clip-path="url(#35b94edef1)"><path fill="#4d0059" d="M -4.03125 -12.75 L 540.898438 -12.75 L 546.382812 109.015625 C 546.382812 109.015625 453.859375 89.316406 275.433594 73.988281 C 97.007812 58.65625 1.453125 109.015625 1.453125 109.015625 Z M -4.03125 -12.75 " fill-opacity="1" fill-rule="nonzero"/></g></svg>